<svg xmlns="http://www.w3.org/2000/svg">
  <defs>
    <!-- astro icon -->
    <symbol id="astro" viewBox="0 0 85 107">
      <path
        d="M27.5894 91.1365C22.7555 86.7178 21.3444 77.4335 23.3583 70.7072C26.8503 74.948 31.6888 76.2914 36.7005 77.0497C44.4375 78.2199 52.0359 77.7822 59.2232 74.2459C60.0454 73.841 60.8052 73.3027 61.7036 72.7574C62.378 74.714 62.5535 76.6892 62.318 78.6996C61.7452 83.5957 59.3086 87.3778 55.4332 90.2448C53.8835 91.3916 52.2437 92.4167 50.6432 93.4979C45.7262 96.8213 44.3959 100.718 46.2435 106.386C46.2874 106.525 46.3267 106.663 46.426 107C43.9155 105.876 42.0817 104.24 40.6845 102.089C39.2087 99.8193 38.5066 97.3081 38.4696 94.5909C38.4511 93.2686 38.4511 91.9345 38.2733 90.6309C37.8391 87.4527 36.3471 86.0297 33.5364 85.9478C30.6518 85.8636 28.37 87.6469 27.7649 90.4554C27.7187 90.6707 27.6517 90.8837 27.5847 91.1341L27.5894 91.1365Z"
        fill="#F041FF" />
      <path
        d="M0 69.5866C0 69.5866 14.3139 62.6137 28.6678 62.6137L39.4901 29.1204C39.8953 27.5007 41.0783 26.3999 42.4139 26.3999C43.7495 26.3999 44.9325 27.5007 45.3377 29.1204L56.1601 62.6137C73.1601 62.6137 84.8278 69.5866 84.8278 69.5866C84.8278 69.5866 60.5145 3.35233 60.467 3.21944C59.7692 1.2612 58.5911 0 57.0029 0H27.8274C26.2392 0 25.1087 1.2612 24.3634 3.21944C24.3108 3.34983 0 69.5866 0 69.5866Z"
        fill="currentColor" />
    </symbol>

    <!-- javascript icon -->
    <symbol id="javascript" viewBox="0 0 630 630">
      <rect width="630" height="630" fill="#f7df1e" />
      <path fill="black"
        d="m423.2 492.19c12.69 20.72 29.2 35.95 58.4 35.95 24.53 0 40.2-12.26 40.2-29.2 0-20.3-16.1-27.49-43.1-39.3l-14.8-6.35c-42.72-18.2-71.1-41-71.1-89.2 0-44.4 33.83-78.2 86.7-78.2 37.64 0 64.7 13.1 84.2 47.4l-46.1 29.6c-10.15-18.2-21.1-25.37-38.1-25.37-17.34 0-28.33 11-28.33 25.37 0 17.76 11 24.95 36.4 35.95l14.8 6.34c50.3 21.57 78.7 43.56 78.7 93 0 53.3-41.87 82.5-98.1 82.5-54.98 0-90.5-26.2-107.88-60.54zm-209.13 5.13c9.3 16.5 17.76 30.45 38.1 30.45 19.45 0 31.72-7.61 31.72-37.2v-201.3h59.2v202.1c0 61.3-35.94 89.2-88.4 89.2-47.4 0-74.85-24.53-88.81-54.075z" />
    </symbol>

    <!-- typescript icon -->
    <symbol id="typescript" fill="none" viewBox="0 0 512 512">
      <rect fill="#3178c6" height="512" rx="50" width="512" />
      <rect fill="#3178c6" height="512" rx="50" width="512" />
      <path clip-rule="evenodd" fill="#fff" fill-rule="evenodd"
        d="m316.939 407.424v50.061c8.138 4.172 17.763 7.3 28.875 9.386s22.823 3.129 35.135 3.129c11.999 0 23.397-1.147 34.196-3.442 10.799-2.294 20.268-6.075 28.406-11.342 8.138-5.266 14.581-12.15 19.328-20.65s7.121-19.007 7.121-31.522c0-9.074-1.356-17.026-4.069-23.857s-6.625-12.906-11.738-18.225c-5.112-5.319-11.242-10.091-18.389-14.315s-15.207-8.213-24.18-11.967c-6.573-2.712-12.468-5.345-17.685-7.9-5.217-2.556-9.651-5.163-13.303-7.822-3.652-2.66-6.469-5.476-8.451-8.448-1.982-2.973-2.974-6.336-2.974-10.091 0-3.441.887-6.544 2.661-9.308s4.278-5.136 7.512-7.118c3.235-1.981 7.199-3.52 11.894-4.615 4.696-1.095 9.912-1.642 15.651-1.642 4.173 0 8.581.313 13.224.938 4.643.626 9.312 1.591 14.008 2.894 4.695 1.304 9.259 2.947 13.694 4.928 4.434 1.982 8.529 4.276 12.285 6.884v-46.776c-7.616-2.92-15.937-5.084-24.962-6.492s-19.381-2.112-31.066-2.112c-11.895 0-23.163 1.278-33.805 3.833s-20.006 6.544-28.093 11.967c-8.086 5.424-14.476 12.333-19.171 20.729-4.695 8.395-7.043 18.433-7.043 30.114 0 14.914 4.304 27.638 12.912 38.172 8.607 10.533 21.675 19.45 39.204 26.751 6.886 2.816 13.303 5.579 19.25 8.291s11.086 5.528 15.415 8.448c4.33 2.92 7.747 6.101 10.252 9.543 2.504 3.441 3.756 7.352 3.756 11.733 0 3.233-.783 6.231-2.348 8.995s-3.939 5.162-7.121 7.196-7.147 3.624-11.894 4.771c-4.748 1.148-10.303 1.721-16.668 1.721-10.851 0-21.597-1.903-32.24-5.71-10.642-3.806-20.502-9.516-29.579-17.13zm-84.159-123.342h64.22v-41.082h-179v41.082h63.906v182.918h50.874z" />
    </symbol>

    <!-- tailwind icon -->
    <symbol id="tailwind" viewBox="0 0 47 40" fill="none">
      <path fill="#6366f1"
        d="M23.5 6.5C17.5 6.5 13.75 9.5 12.25 15.5C14.5 12.5 17.125 11.375 20.125 12.125C21.8367 12.5529 23.0601 13.7947 24.4142 15.1692C26.6202 17.4084 29.1734 20 34.75 20C40.75 20 44.5 17 46 11C43.75 14 41.125 15.125 38.125 14.375C36.4133 13.9471 35.1899 12.7053 33.8357 11.3308C31.6297 9.09158 29.0766 6.5 23.5 6.5ZM12.25 20C6.25 20 2.5 23 1 29C3.25 26 5.875 24.875 8.875 25.625C10.5867 26.0529 11.8101 27.2947 13.1642 28.6693C15.3702 30.9084 17.9234 33.5 23.5 33.5C29.5 33.5 33.25 30.5 34.75 24.5C32.5 27.5 29.875 28.625 26.875 27.875C25.1633 27.4471 23.9399 26.2053 22.5858 24.8307C20.3798 22.5916 17.8266 20 12.25 20Z" />
    </symbol>

    <!-- flutter icon-->
    <symbol id="flutter" viewBox="0 0 32 32">
      <path fill="#40d0fd" d="m15.383 18.316l3.361-3.274h8.349l-7.396 7.396z" />
      <path fill="#41d0fd" d="m4.907 16.125l4.199 4.299L27.093 2.287h-8.349z" />
      <path fill="#1fbcfd" d="m11.176 22.479l4.259 4.196l4.262-4.237l-4.314-4.122z" />
      <path fill="#095a9d" d="m15.435 26.675l4.262-4.237l7.292 7.375h-8.396z" />
      <path fill="#0e5199" d="m15.435 26.675l3.971-1.321l-1.338-1.297z" />
    </symbol>

    <!-- node icon-->
    <symbol id="node" viewBox="0 0 32 32">
      <path fill="#83cd29"
        d="M16 30a2.15 2.15 0 0 1-1.076-.288L11.5 27.685c-.511-.286-.262-.387-.093-.446a6.8 6.8 0 0 0 1.549-.7a.26.26 0 0 1 .255.019l2.631 1.563a.34.34 0 0 0 .318 0l10.26-5.922a.32.32 0 0 0 .157-.278V10.075a.33.33 0 0 0-.159-.283l-10.26-5.917a.32.32 0 0 0-.317 0L5.587 9.794a.33.33 0 0 0-.162.281v11.841a.32.32 0 0 0 .161.274L8.4 23.814c1.525.762 2.459-.136 2.459-1.038V11.085a.3.3 0 0 1 .3-.3h1.3a.3.3 0 0 1 .3.3v11.692c0 2.035-1.108 3.2-3.038 3.2a4.4 4.4 0 0 1-2.363-.642l-2.697-1.547a2.17 2.17 0 0 1-1.076-1.872V10.075A2.16 2.16 0 0 1 4.661 8.2l10.261-5.924a2.25 2.25 0 0 1 2.156 0L27.338 8.2a2.17 2.17 0 0 1 1.077 1.87v11.846a2.17 2.17 0 0 1-1.077 1.872l-10.26 5.924A2.15 2.15 0 0 1 16 30" />
      <path fill="#83cd29"
        d="M14.054 17.953a.3.3 0 0 1 .3-.3h1.327a.3.3 0 0 1 .295.251c.2 1.351.8 2.032 3.513 2.032c2.161 0 3.082-.489 3.082-1.636c0-.661-.261-1.152-3.62-1.481c-2.808-.278-4.544-.9-4.544-3.144c0-2.07 1.745-3.305 4.67-3.305c3.287 0 4.914 1.141 5.12 3.589a.3.3 0 0 1-.295.323h-1.336a.3.3 0 0 1-.288-.232c-.319-1.421-1.1-1.875-3.2-1.875c-2.36 0-2.634.822-2.634 1.438c0 .746.324.964 3.51 1.385c3.153.417 4.651 1.007 4.651 3.223c0 2.236-1.864 3.516-5.115 3.516c-4.495.006-5.436-2.055-5.436-3.784" />
    </symbol>

    <!-- c# icon-->
    <symbol id="csharp" viewBox="0 0 64 64">
      <linearGradient id="SVGID_1_" gradientUnits="userSpaceOnUse" x1="15.25" y1="31.296" x2="15.25" y2="15.385"
        gradientTransform="matrix(1 0 0 -1 0 64)">
        <stop offset="0" style="stop-color:#8AB4FF" />
        <stop offset="0.699" style="stop-color:#E492FF" />
      </linearGradient>
      <path style="fill:url(#SVGID_1_);" d="M19.09,39.37c0,0.01,0.01,0.01,0.01,0.02l-7.7,4.5L19.09,39.37z" />
      <linearGradient id="SVGID_00000160174306689772830500000007389533700621767081_" gradientUnits="userSpaceOnUse"
        x1="15.25" y1="33.329" x2="15.25" y2="20.11" gradientTransform="matrix(1 0 0 -1 0 64)">
        <stop offset="0" style="stop-color:#8AB4FF" />
        <stop offset="0.699" style="stop-color:#E492FF" />
      </linearGradient>
      <path style="fill:url(#SVGID_00000160174306689772830500000007389533700621767081_);" d="M19.09,39.37c0,0.01,0.01,0.01,0.01,0.02
	l-7.7,4.5L19.09,39.37z" />
      <linearGradient id="SVGID_00000054986058774738275870000002733806302635148680_" gradientUnits="userSpaceOnUse"
        x1="31.87" y1="10.7004" x2="31.87" y2="35.1521">
        <stop offset="0" style="stop-color:#8AB4FF" />
        <stop offset="1" style="stop-color:#E492FF" />
      </linearGradient>
      <path style="fill:url(#SVGID_00000054986058774738275870000002733806302635148680_);" d="M32,8.21l-20.6,11.9v23.78l7.69-4.52
	c-1.18-2.17-1.85-4.65-1.85-7.3c0-2.88,0.8-5.56,2.18-7.87c2.68-4.46,7.57-7.46,13.15-7.46c5.27,0,10.11,2.67,12.94,7.12l-0.39,0.24
	l-6.57,3.87c-1.35-1.99-3.57-3.16-5.98-3.16c-2.62,0-4.91,1.39-6.19,3.47c-0.68,1.11-1.07,2.4-1.07,3.79c0,1.16,0.27,2.25,0.75,3.22
	l6.13-3.6h0.01l0.04,0.02l20.1-11.75L32,8.21z" />
      <linearGradient id="SVGID_00000030486605470574455790000009548068537101078971_" gradientUnits="userSpaceOnUse"
        x1="32" y1="8.0581" x2="32" y2="57.7844">
        <stop offset="0" style="stop-color:#1A6DFF" />
        <stop offset="1" style="stop-color:#C822FF" />
      </linearGradient>
      <path style="fill:url(#SVGID_00000030486605470574455790000009548068537101078971_);" d="M32.24,31.71l-6.17,3.6
	c1.19,2.38,3.66,4.02,6.5,4.02c2.382,0,4.553-1.156,5.911-3.063l7.076,3.931C42.76,44.666,37.897,47.4,32.57,47.4
	c-5.8,0-10.87-3.24-13.47-8.01l-7.7,4.5L32,55.79l20.6-11.9v-0.22V20.11l-0.26-0.15L32.24,31.71z M51,31h-2v2h2v2h-2v2h-2v-2h-2v2
	h-2v-2h-2v-2h2v-2h-2v-2h2v-2h2v2h2v-2h2v2h2V31z M45,31h2v2h-2V31z M55.1,16.93L33.5,4.46c-0.93-0.53-2.07-0.53-3,0L8.9,16.93
	c-0.92,0.54-1.5,1.53-1.5,2.6v24.94c0,1.07,0.58,2.06,1.5,2.6l21.6,12.47c0.93,0.53,2.07,0.53,3,0l21.6-12.47
	c0.92-0.54,1.5-1.53,1.5-2.6V19.53C56.6,18.46,56.02,17.47,55.1,16.93z M54.6,44.47c0,0.36-0.19,0.69-0.5,0.87L32.5,57.81
	c-0.31,0.17-0.69,0.17-1,0L9.9,45.34c-0.31-0.18-0.5-0.51-0.5-0.87V19.53c0-0.36,0.19-0.69,0.5-0.87L31.5,6.19
	c0.31-0.17,0.69-0.17,1,0l21.6,12.47c0.31,0.18,0.5,0.51,0.5,0.87V44.47z" />
    </symbol>

    <!-- dotnet icon-->
    <symbol id="dotnet" viewBox="0 0 128 128">
      <g fill="#623697">
        <path
          d="M61.195 0h4.953c12.918.535 25.688 4.89 36.043 12.676 9.809 7.289 17.473 17.437 21.727 28.906 2.441 6.387 3.664 13.18 4.082 19.992v4.211c-.414 11.293-3.664 22.52-9.73 32.082-6.801 10.895-16.922 19.73-28.727 24.828A64.399 64.399 0 0165.082 128h-2.144c-11.735-.191-23.41-3.66-33.297-9.992-11.196-7.113-20.114-17.785-25.028-30.117C1.891 81.19.441 74.02 0 66.812v-4.957c.504-14.39 5.953-28.609 15.41-39.496C23.168 13.31 33.5 6.48 44.887 2.937 50.172 1.27 55.676.41 61.195 0M25.191 37.523c-.03 12.153-.011 24.305-.011 36.454 1.43.011 2.86.011 4.293.011-.075-10.433.101-20.863-.106-31.293.48.907.918 1.84 1.465 2.707C37.035 54.91 43.105 64.5 49.309 74c1.738-.023 3.476-.023 5.214.004-.003-12.16-.007-24.32.004-36.48a308.076 308.076 0 00-4.25-.012c.075 10.32-.136 20.64.125 30.949-6.507-10.352-13.101-20.645-19.695-30.945a370.85 370.85 0 00-5.516.007m38.844-.011c-.129 12.16-.004 24.32-.047 36.476 6.469-.015 12.938.024 19.41-.02a83.36 83.36 0 01.024-3.952c-5.012-.016-10.027.007-15.043-.02-.074-4.21-.004-8.426-.04-12.637 4.395-.078 8.79.012 13.18-.047-.011-1.277-.011-2.554-.019-3.832-4.387.141-8.773-.054-13.164.012.012-4.023.02-8.05.02-12.078 4.699 0 9.398-.02 14.093.012-.008-1.301 0-2.606.016-3.906-6.145-.016-12.29-.008-18.43-.008m22.602.054c.004 1.266.004 2.528.008 3.79 3.488-.04 6.972.109 10.46.035-.023 10.863.004 21.718-.011 32.574 1.46.043 2.93.035 4.39-.09-.12-5.992.118-11.988-.156-17.977.067-2.699-.07-5.394.117-8.09.106-2.14-.277-4.277-.035-6.417 3.516.047 7.035.015 10.55.015a59.774 59.774 0 01.075-3.832c-8.469-.105-16.937-.094-25.398-.008M13.55 69.094c-1.977.91-2.106 4.023-.149 5.027 1.72 1.18 4.305-.371 4.227-2.41.133-2.004-2.29-3.688-4.078-2.617m29.23 15.289c-4.277 3.469-4.226 11.195.5 14.25 2.668 1.695 6.102 1.344 8.922.215.012-.621.027-1.239.05-1.86-2.671 1.395-6.41 1.68-8.675-.61-2.965-3.237-2.297-9.269 1.613-11.476 2.211-1.164 4.907-.824 7.086.239-.007-.66-.004-1.32 0-1.98-3.097-1.099-6.922-1.04-9.496 1.222m17.207 2.71c-1.89.22-3.758 1.22-4.633 2.966-1.253 2.496-1.109 5.867.864 7.96 2.035 2.297 5.945 2.32 8.18.297 2.425-2.308 2.699-6.468.757-9.164-1.148-1.629-3.273-2.183-5.168-2.058m17.887 2.722c-1.66 2.883-1.332 7.25 1.598 9.211 2.183 1.22 4.933.832 7.074-.308-.004-.617.004-1.235.031-1.848-1.687 1.07-3.937 1.856-5.812.777-1.309-.722-1.704-2.257-1.914-3.625 2.875-.039 5.746-.082 8.625-.074-.075-1.828-.118-3.894-1.45-5.308-2.199-2.43-6.644-1.657-8.152 1.175m-8.414-2.336v12.008c.652 0 1.312 0 1.973.004.023-2.195-.04-4.394.023-6.594.016-1.27.527-2.558 1.484-3.414.801-.605 1.883-.27 2.801-.246-.012-.636-.02-1.27-.023-1.902-1.793-.398-3.336.652-4.242 2.117-.02-.633-.04-1.266-.051-1.894-.656-.024-1.313-.051-1.965-.079zm0 0" />
        <path
          d="M58.758 89.223c1.652-.805 4.023-.41 4.945 1.3 1.05 1.887 1.027 4.383-.137 6.211-1.52 2.286-5.527 1.786-6.523-.742-1.008-2.258-.617-5.484 1.715-6.77zm0 0M79.04 92.414c.046-1.574 1.144-3.137 2.726-3.48.976-.164 2.097.007 2.773.793.672.714.813 1.714.98 2.64-2.16.012-4.32-.031-6.48.047zm0 0" />
      </g>
    </symbol>


    <!-- python icon-->
    <symbol id="python" viewBox="0 0 32 32">
      <defs>
        <linearGradient id="vscodeIconsFileTypePython0" x1="-133.268" x2="-133.198" y1="-202.91" y2="-202.84"
          gradientTransform="matrix(189.38 0 0 189.81 25243.061 38519.17)" gradientUnits="userSpaceOnUse">
          <stop offset="0" stop-color="#387eb8" />
          <stop offset="1" stop-color="#366994" />
        </linearGradient>
        <linearGradient id="vscodeIconsFileTypePython1" x1="-133.575" x2="-133.495" y1="-203.203" y2="-203.133"
          gradientTransform="matrix(189.38 0 0 189.81 25309.061 38583.42)" gradientUnits="userSpaceOnUse">
          <stop offset="0" stop-color="#ffe052" />
          <stop offset="1" stop-color="#ffc331" />
        </linearGradient>
      </defs>
      <path fill="url(#vscodeIconsFileTypePython0)"
        d="M15.885 2.1c-7.1 0-6.651 3.07-6.651 3.07v3.19h6.752v1H6.545S2 8.8 2 16.005s4.013 6.912 4.013 6.912H8.33v-3.361s-.13-4.013 3.9-4.013h6.762s3.772.06 3.772-3.652V5.8s.572-3.712-6.842-3.712Zm-3.732 2.137a1.214 1.214 0 1 1-1.183 1.244v-.02a1.214 1.214 0 0 1 1.214-1.214Z" />
      <path fill="url(#vscodeIconsFileTypePython1)"
        d="M16.085 29.91c7.1 0 6.651-3.08 6.651-3.08v-3.18h-6.751v-1h9.47S30 23.158 30 15.995s-4.013-6.912-4.013-6.912H23.64V12.4s.13 4.013-3.9 4.013h-6.765S9.2 16.356 9.2 20.068V26.2s-.572 3.712 6.842 3.712h.04Zm3.732-2.147A1.214 1.214 0 1 1 21 26.519v.03a1.214 1.214 0 0 1-1.214 1.214z" />
    </symbol>
</svg>