<svg xmlns="http://www.w3.org/2000/svg">
  <defs>
    <!-- astro icon -->
    <symbol id="astro" viewBox="0 0 85 107">
      <path
        d="M27.5894 91.1365C22.7555 86.7178 21.3444 77.4335 23.3583 70.7072C26.8503 74.948 31.6888 76.2914 36.7005 77.0497C44.4375 78.2199 52.0359 77.7822 59.2232 74.2459C60.0454 73.841 60.8052 73.3027 61.7036 72.7574C62.378 74.714 62.5535 76.6892 62.318 78.6996C61.7452 83.5957 59.3086 87.3778 55.4332 90.2448C53.8835 91.3916 52.2437 92.4167 50.6432 93.4979C45.7262 96.8213 44.3959 100.718 46.2435 106.386C46.2874 106.525 46.3267 106.663 46.426 107C43.9155 105.876 42.0817 104.24 40.6845 102.089C39.2087 99.8193 38.5066 97.3081 38.4696 94.5909C38.4511 93.2686 38.4511 91.9345 38.2733 90.6309C37.8391 87.4527 36.3471 86.0297 33.5364 85.9478C30.6518 85.8636 28.37 87.6469 27.7649 90.4554C27.7187 90.6707 27.6517 90.8837 27.5847 91.1341L27.5894 91.1365Z"
        fill="#F041FF" />
      <path
        d="M0 69.5866C0 69.5866 14.3139 62.6137 28.6678 62.6137L39.4901 29.1204C39.8953 27.5007 41.0783 26.3999 42.4139 26.3999C43.7495 26.3999 44.9325 27.5007 45.3377 29.1204L56.1601 62.6137C73.1601 62.6137 84.8278 69.5866 84.8278 69.5866C84.8278 69.5866 60.5145 3.35233 60.467 3.21944C59.7692 1.2612 58.5911 0 57.0029 0H27.8274C26.2392 0 25.1087 1.2612 24.3634 3.21944C24.3108 3.34983 0 69.5866 0 69.5866Z"
        fill="currentColor" />
    </symbol>

    <!-- javascript icon -->
    <symbol id="javascript" viewBox="0 0 630 630">
      <rect width="630" height="630" fill="#f7df1e" />
      <path fill="black"
        d="m423.2 492.19c12.69 20.72 29.2 35.95 58.4 35.95 24.53 0 40.2-12.26 40.2-29.2 0-20.3-16.1-27.49-43.1-39.3l-14.8-6.35c-42.72-18.2-71.1-41-71.1-89.2 0-44.4 33.83-78.2 86.7-78.2 37.64 0 64.7 13.1 84.2 47.4l-46.1 29.6c-10.15-18.2-21.1-25.37-38.1-25.37-17.34 0-28.33 11-28.33 25.37 0 17.76 11 24.95 36.4 35.95l14.8 6.34c50.3 21.57 78.7 43.56 78.7 93 0 53.3-41.87 82.5-98.1 82.5-54.98 0-90.5-26.2-107.88-60.54zm-209.13 5.13c9.3 16.5 17.76 30.45 38.1 30.45 19.45 0 31.72-7.61 31.72-37.2v-201.3h59.2v202.1c0 61.3-35.94 89.2-88.4 89.2-47.4 0-74.85-24.53-88.81-54.075z" />
    </symbol>

    <!-- typescript icon -->
    <symbol id="typescript" fill="none" viewBox="0 0 512 512">
      <rect fill="#3178c6" height="512" rx="50" width="512" />
      <rect fill="#3178c6" height="512" rx="50" width="512" />
      <path clip-rule="evenodd" fill="#fff" fill-rule="evenodd"
        d="m316.939 407.424v50.061c8.138 4.172 17.763 7.3 28.875 9.386s22.823 3.129 35.135 3.129c11.999 0 23.397-1.147 34.196-3.442 10.799-2.294 20.268-6.075 28.406-11.342 8.138-5.266 14.581-12.15 19.328-20.65s7.121-19.007 7.121-31.522c0-9.074-1.356-17.026-4.069-23.857s-6.625-12.906-11.738-18.225c-5.112-5.319-11.242-10.091-18.389-14.315s-15.207-8.213-24.18-11.967c-6.573-2.712-12.468-5.345-17.685-7.9-5.217-2.556-9.651-5.163-13.303-7.822-3.652-2.66-6.469-5.476-8.451-8.448-1.982-2.973-2.974-6.336-2.974-10.091 0-3.441.887-6.544 2.661-9.308s4.278-5.136 7.512-7.118c3.235-1.981 7.199-3.52 11.894-4.615 4.696-1.095 9.912-1.642 15.651-1.642 4.173 0 8.581.313 13.224.938 4.643.626 9.312 1.591 14.008 2.894 4.695 1.304 9.259 2.947 13.694 4.928 4.434 1.982 8.529 4.276 12.285 6.884v-46.776c-7.616-2.92-15.937-5.084-24.962-6.492s-19.381-2.112-31.066-2.112c-11.895 0-23.163 1.278-33.805 3.833s-20.006 6.544-28.093 11.967c-8.086 5.424-14.476 12.333-19.171 20.729-4.695 8.395-7.043 18.433-7.043 30.114 0 14.914 4.304 27.638 12.912 38.172 8.607 10.533 21.675 19.45 39.204 26.751 6.886 2.816 13.303 5.579 19.25 8.291s11.086 5.528 15.415 8.448c4.33 2.92 7.747 6.101 10.252 9.543 2.504 3.441 3.756 7.352 3.756 11.733 0 3.233-.783 6.231-2.348 8.995s-3.939 5.162-7.121 7.196-7.147 3.624-11.894 4.771c-4.748 1.148-10.303 1.721-16.668 1.721-10.851 0-21.597-1.903-32.24-5.71-10.642-3.806-20.502-9.516-29.579-17.13zm-84.159-123.342h64.22v-41.082h-179v41.082h63.906v182.918h50.874z" />
    </symbol>

    <!-- tailwind icon -->
    <symbol id="tailwind" viewBox="0 0 47 40" fill="none">
      <path fill="#6366f1"
        d="M23.5 6.5C17.5 6.5 13.75 9.5 12.25 15.5C14.5 12.5 17.125 11.375 20.125 12.125C21.8367 12.5529 23.0601 13.7947 24.4142 15.1692C26.6202 17.4084 29.1734 20 34.75 20C40.75 20 44.5 17 46 11C43.75 14 41.125 15.125 38.125 14.375C36.4133 13.9471 35.1899 12.7053 33.8357 11.3308C31.6297 9.09158 29.0766 6.5 23.5 6.5ZM12.25 20C6.25 20 2.5 23 1 29C3.25 26 5.875 24.875 8.875 25.625C10.5867 26.0529 11.8101 27.2947 13.1642 28.6693C15.3702 30.9084 17.9234 33.5 23.5 33.5C29.5 33.5 33.25 30.5 34.75 24.5C32.5 27.5 29.875 28.625 26.875 27.875C25.1633 27.4471 23.9399 26.2053 22.5858 24.8307C20.3798 22.5916 17.8266 20 12.25 20Z" />
    </symbol>

    <!-- flutter icon-->
    <symbol id="flutter" viewBox="0 0 32 32">
      <path fill="#40d0fd" d="m15.383 18.316l3.361-3.274h8.349l-7.396 7.396z" />
      <path fill="#41d0fd" d="m4.907 16.125l4.199 4.299L27.093 2.287h-8.349z" />
      <path fill="#1fbcfd" d="m11.176 22.479l4.259 4.196l4.262-4.237l-4.314-4.122z" />
      <path fill="#095a9d" d="m15.435 26.675l4.262-4.237l7.292 7.375h-8.396z" />
      <path fill="#0e5199" d="m15.435 26.675l3.971-1.321l-1.338-1.297z" />
    </symbol>

    <!-- node icon-->
    <symbol id="node" viewBox="0 0 32 32"><path fill="#83cd29" d="M16 30a2.15 2.15 0 0 1-1.076-.288L11.5 27.685c-.511-.286-.262-.387-.093-.446a6.8 6.8 0 0 0 1.549-.7a.26.26 0 0 1 .255.019l2.631 1.563a.34.34 0 0 0 .318 0l10.26-5.922a.32.32 0 0 0 .157-.278V10.075a.33.33 0 0 0-.159-.283l-10.26-5.917a.32.32 0 0 0-.317 0L5.587 9.794a.33.33 0 0 0-.162.281v11.841a.32.32 0 0 0 .161.274L8.4 23.814c1.525.762 2.459-.136 2.459-1.038V11.085a.3.3 0 0 1 .3-.3h1.3a.3.3 0 0 1 .3.3v11.692c0 2.035-1.108 3.2-3.038 3.2a4.4 4.4 0 0 1-2.363-.642l-2.697-1.547a2.17 2.17 0 0 1-1.076-1.872V10.075A2.16 2.16 0 0 1 4.661 8.2l10.261-5.924a2.25 2.25 0 0 1 2.156 0L27.338 8.2a2.17 2.17 0 0 1 1.077 1.87v11.846a2.17 2.17 0 0 1-1.077 1.872l-10.26 5.924A2.15 2.15 0 0 1 16 30"/><path fill="#83cd29" d="M14.054 17.953a.3.3 0 0 1 .3-.3h1.327a.3.3 0 0 1 .295.251c.2 1.351.8 2.032 3.513 2.032c2.161 0 3.082-.489 3.082-1.636c0-.661-.261-1.152-3.62-1.481c-2.808-.278-4.544-.9-4.544-3.144c0-2.07 1.745-3.305 4.67-3.305c3.287 0 4.914 1.141 5.12 3.589a.3.3 0 0 1-.295.323h-1.336a.3.3 0 0 1-.288-.232c-.319-1.421-1.1-1.875-3.2-1.875c-2.36 0-2.634.822-2.634 1.438c0 .746.324.964 3.51 1.385c3.153.417 4.651 1.007 4.651 3.223c0 2.236-1.864 3.516-5.115 3.516c-4.495.006-5.436-2.055-5.436-3.784"/></symbol>

    <!-- go icon-->
    <symbol id="go" viewBox="0 0 512 192"><path fill="#00acd7" d="m292.533 13.295l1.124.75c13.212 8.725 22.685 20.691 28.917 35.15c1.496 2.243.499 3.49-2.493 4.237l-5.063 1.296c-11.447 2.949-20.53 5.429-31.827 8.378l-6.443 1.678c-2.32.574-2.96.333-5.428-2.477l-.348-.399c-3.519-3.988-6.155-6.652-10.817-9.03l-.899-.443c-15.705-7.727-30.911-5.484-45.12 3.74c-16.952 10.968-25.677 27.172-25.428 47.364c.25 19.942 13.96 36.395 33.654 39.137c16.951 2.244 31.16-3.739 42.378-16.452c2.244-2.743 4.238-5.734 6.73-9.224h-48.11c-5.235 0-6.481-3.24-4.736-7.478l.864-2.035c3.204-7.454 8.173-18.168 11.4-24.294l.704-1.319c.862-1.494 2.612-3.513 5.977-3.513h80.224c3.603-11.415 9.449-22.201 17.246-32.407c18.198-23.931 40.135-36.396 69.8-41.63c25.427-4.488 49.359-1.995 71.046 12.713c19.694 13.461 31.909 31.66 35.15 55.59c4.237 33.654-5.485 61.075-28.668 84.508c-16.453 16.702-36.645 27.172-59.829 31.908c-6.73 1.247-13.461 1.496-19.942 2.244c-22.685-.499-43.376-6.98-60.826-21.937c-12.273-10.61-20.727-23.648-24.928-38.828a105 105 0 0 1-10.47 16.89c-17.949 23.683-41.381 38.39-71.046 42.38c-24.43 3.24-47.115-1.497-67.058-16.454c-18.447-13.96-28.917-32.407-31.66-55.34c-3.24-27.173 4.737-51.603 21.19-73.041c17.7-23.184 41.132-37.891 69.8-43.126c22.999-4.16 45.037-1.595 64.936 11.464M411.12 49.017l-.798.178c-23.183 5.235-38.14 19.942-43.624 43.375c-4.488 19.444 4.985 39.138 22.934 47.115c13.71 5.983 27.421 5.235 40.633-1.496c19.694-10.22 30.413-26.175 31.66-47.613c-.25-3.24-.25-5.734-.749-8.227c-4.436-24.401-26.664-38.324-50.056-33.332M116.416 94.564c.997 0 1.496.748 1.496 1.745l-.499 5.983c0 .997-.997 1.745-1.745 1.745l-54.344-.249c-.997 0-1.246-.748-.748-1.496l3.49-6.232c.499-.748 1.496-1.496 2.493-1.496zM121.9 71.63c.997 0 1.496.748 1.247 1.496l-1.995 5.983c-.249.997-1.246 1.495-2.243 1.495l-117.912.25c-.997 0-1.246-.499-.748-1.247l5.235-6.73c.499-.748 1.745-1.247 2.742-1.247zm12.963-22.934c.997 0 1.246.748.748 1.496l-4.238 6.481c-.499.748-1.745 1.496-2.493 1.496l-90.24-.25c-.998 0-1.247-.498-.749-1.246l5.235-6.73c.499-.748 1.745-1.247 2.742-1.247z"/></symbol>

    <!-- python icon-->
    <symbol id="python" viewBox="0 0 32 32"><defs><linearGradient id="vscodeIconsFileTypePython0" x1="-133.268" x2="-133.198" y1="-202.91" y2="-202.84" gradientTransform="matrix(189.38 0 0 189.81 25243.061 38519.17)" gradientUnits="userSpaceOnUse"><stop offset="0" stop-color="#387eb8"/><stop offset="1" stop-color="#366994"/></linearGradient><linearGradient id="vscodeIconsFileTypePython1" x1="-133.575" x2="-133.495" y1="-203.203" y2="-203.133" gradientTransform="matrix(189.38 0 0 189.81 25309.061 38583.42)" gradientUnits="userSpaceOnUse"><stop offset="0" stop-color="#ffe052"/><stop offset="1" stop-color="#ffc331"/></linearGradient></defs><path fill="url(#vscodeIconsFileTypePython0)" d="M15.885 2.1c-7.1 0-6.651 3.07-6.651 3.07v3.19h6.752v1H6.545S2 8.8 2 16.005s4.013 6.912 4.013 6.912H8.33v-3.361s-.13-4.013 3.9-4.013h6.762s3.772.06 3.772-3.652V5.8s.572-3.712-6.842-3.712Zm-3.732 2.137a1.214 1.214 0 1 1-1.183 1.244v-.02a1.214 1.214 0 0 1 1.214-1.214Z"/><path fill="url(#vscodeIconsFileTypePython1)" d="M16.085 29.91c7.1 0 6.651-3.08 6.651-3.08v-3.18h-6.751v-1h9.47S30 23.158 30 15.995s-4.013-6.912-4.013-6.912H23.64V12.4s.13 4.013-3.9 4.013h-6.765S9.2 16.356 9.2 20.068V26.2s-.572 3.712 6.842 3.712h.04Zm3.732-2.147A1.214 1.214 0 1 1 21 26.519v.03a1.214 1.214 0 0 1-1.214 1.214z"/></symbol>
</svg>